<?xml version="1.0" encoding="iso-8859-1"?>
<!-- Generator: Adobe Illustrator 16.0.0, SVG Export Plug-In . SVG Version: 6.00 Build 0)  -->
<!DOCTYPE svg PUBLIC "-//W3C//DTD SVG 1.1//EN" "http://www.w3.org/Graphics/SVG/1.1/DTD/svg11.dtd">
<svg version="1.1" id="Layer_1" xmlns="http://www.w3.org/2000/svg" xmlns:xlink="http://www.w3.org/1999/xlink" x="0px" y="0px"
	 width="1920px" height="1080px" viewBox="0 0 1920 1080" style="enable-background:new 0 0 1920 1080;" xml:space="preserve">
<rect x="1.215" y="1.588" style="fill:#23133A;" width="1918.785" height="1078.393"/>
<path style="fill:none;stroke:#59C097;stroke-width:3;stroke-linecap:round;stroke-linejoin:round;stroke-miterlimit:10;" d="
	M768.837,859.991l-70.365,8.055c-2.788,0.313-5.427-0.63-7.518-2.46v-0.012c-2.424-2.097-4.113-5.396-4.428-9.229l-6.781-83.542
	c-0.579-7.157,3.827-13.509,9.854-14.194l70.353-8.055c2.887-0.327,5.615,0.7,7.745,2.646c2.306,2.12,3.907,5.337,4.211,9.054
	l6.771,83.552C779.271,852.954,774.853,859.306,768.837,859.991z"/>
<polygon style="fill:#468CCB;" points="1240.461,502.117 591.627,576.344 600.218,682.236 1249.054,608.01 "/>
<polygon style="fill:#FFFFFF;" points="1138.814,830.628 958.073,851.307 954.672,809.375 1135.413,788.698 "/>
<polygon style="fill:#FFFFFF;" points="1204.683,745.361 951.838,774.283 948.438,732.358 1201.28,703.431 "/>
<path style="fill:none;stroke:#FFFFFF;stroke-width:5;stroke-linecap:round;stroke-linejoin:round;stroke-miterlimit:10;stroke-dasharray:2,200;" d="
	M1242.548,523.829L1242.548,523.829l-7.958-98.074c-1.472-18.154-15.063-31.453-30.352-29.705l-593.787,67.931
	c-15.288,1.75-26.49,17.882-25.017,36.037l7.651,94.305l0,0l27.21,335.373c1.474,18.153,15.062,31.454,30.35,29.703l593.791-67.929
	c15.291-1.748,26.487-17.885,25.019-36.039L1242.548,523.829z"/>
<g>
	<polygon style="fill:#FFFFFF;" points="1210.919,849.924 1229.194,928.352 1242.34,897.635 1273.258,892.627 	"/>
	<polygon style="fill:#FFFFFF;" points="1269.284,930.15 1261.146,937.559 1236.194,898.897 1244.334,891.489 	"/>
</g>
<path style="fill:none;stroke:#FFFFFF;stroke-width:5;stroke-linecap:round;stroke-linejoin:round;stroke-miterlimit:10;stroke-dasharray:20,200;" d="
	M1242.548,523.829L1242.548,523.829l-7.958-98.074c-1.472-18.154-15.063-31.453-30.352-29.705l-593.787,67.931
	c-15.288,1.75-26.49,17.882-25.017,36.037l7.651,94.305l0,0l27.21,335.373c1.474,18.153,15.062,31.454,30.35,29.703l593.791-67.929
	c15.291-1.748,26.487-17.885,25.019-36.039L1242.548,523.829z"/>
<path style="fill:none;stroke:#FFFFFF;stroke-width:5;stroke-linecap:round;stroke-linejoin:round;stroke-miterlimit:10;stroke-dasharray:80,100;" d="
	M1242.548,523.829L1242.548,523.829l-7.958-98.074c-1.472-18.154-15.063-31.453-30.352-29.705l-593.787,67.931
	c-15.288,1.75-26.49,17.882-25.017,36.037l7.651,94.305l0,0l27.21,335.373c1.474,18.153,15.062,31.454,30.35,29.703l593.791-67.929
	c15.291-1.748,26.487-17.885,25.019-36.039L1242.548,523.829z"/>
<path style="fill:#59C097;" d="M768.837,859.991l-70.365,8.055c-2.788,0.313-5.427-0.63-7.518-2.46v-0.012l76.724-112.361
	l0.02-0.012c2.306,2.12,3.907,5.337,4.211,9.054l6.771,83.552C779.271,852.954,774.853,859.306,768.837,859.991z"/>
<polyline style="fill:none;stroke:#FFFFFF;stroke-width:4;stroke-linecap:round;stroke-linejoin:round;stroke-miterlimit:10;" points="
	681.869,798.965 729.215,792.725 734.845,825.287 776.588,820.003 "/>
<path style="fill:none;stroke:#468CCB;stroke-width:4;stroke-miterlimit:10;" d="M1.195,873.561c0,0,126.467,34.244,107.664,210.157
	"/>
<path style="fill:none;stroke:#468CCB;stroke-width:4;stroke-miterlimit:10;" d="M1472.723,1079.981
	c0,0,30.013-276.302,217.025-301.918C1876.764,752.447,1920,373.304,1920,373.304"/>
<path style="fill:none;stroke:#59C097;stroke-width:3;stroke-linecap:round;stroke-linejoin:round;stroke-miterlimit:10;" d="
	M1629.632,3.542c0,0-40.413,1015.991,286.571,973.819"/>
<path style="fill:none;stroke:#FFFFFF;stroke-width:4;stroke-miterlimit:10;" d="M1.195,505.839c0,0,270.497,0,298.827,574.142"/>
<path style="fill:none;stroke:#FFFFFF;stroke-width:4;stroke-miterlimit:10;" d="M1725.895,1079.981
	c0,0-113.243-773.186,190.309-977.374"/>
<ellipse style="fill:#FFFFFF;" cx="427.185" cy="972.583" rx="11.372" ry="13.503"/>
<ellipse style="fill:#FFFFFF;" cx="1421.118" cy="715.776" rx="11.372" ry="13.503"/>
<ellipse style="fill:#FFFFFF;" cx="1568.627" cy="258.318" rx="11.371" ry="13.503"/>
<ellipse style="fill:#468CCB;" cx="404.442" cy="577.59" rx="11.371" ry="13.502"/>
<path style="fill:#468CCB;" d="M1832.486,719.279c2.535,6.822-0.07,14.794-5.816,17.805c-5.74,3.01-12.458-0.083-14.991-6.905
	c-2.535-6.823,0.066-14.795,5.813-17.804S1829.949,712.457,1832.486,719.279z"/>
<ellipse style="fill:#468CCB;" cx="98.186" cy="856.049" rx="11.372" ry="13.503"/>
<path style="fill:#468CCB;" d="M1377.547,932.092c0,5.439-3.712,9.85-8.297,9.85c-4.582,0-8.295-4.41-8.295-9.85
	c0-5.44,3.713-9.85,8.295-9.85C1373.835,922.242,1377.547,926.651,1377.547,932.092z"/>
</svg>
