<?xml version="1.0" encoding="iso-8859-1"?>
<!-- Generator: Adobe Illustrator 16.0.0, SVG Export Plug-In . SVG Version: 6.00 Build 0)  -->
<!DOCTYPE svg PUBLIC "-//W3C//DTD SVG 1.1//EN" "http://www.w3.org/Graphics/SVG/1.1/DTD/svg11.dtd">
<svg version="1.1" id="Layer_1" xmlns="http://www.w3.org/2000/svg" xmlns:xlink="http://www.w3.org/1999/xlink" x="100px" y="100px"
	 width="100px" height="100px" viewBox="0 0 100 100" style="enable-background:new 0 0 100 100;" xml:space="preserve">
<polygon style="fill:#6AC9C8;" points="20.284,44.552 22.176,48.385 26.406,49 23.345,51.982 24.067,56.195 20.284,54.207 
	16.501,56.195 17.224,51.982 14.163,49 18.393,48.385 "/>
<polygon style="fill:#6AC9C8;" points="34.973,44.552 36.863,48.385 41.094,49 38.033,51.982 38.756,56.195 34.973,54.207 
	31.189,56.195 31.912,51.982 28.851,49 33.08,48.385 "/>
<polygon style="fill:#6AC9C8;" points="49.66,44.552 51.551,48.385 55.781,49 52.721,51.982 53.443,56.195 49.66,54.207 
	45.877,56.195 46.6,51.982 43.539,49 47.769,48.385 "/>
<polygon style="fill:#6AC9C8;" points="64.348,44.552 66.24,48.385 70.469,49 67.408,51.982 68.131,56.195 64.348,54.207 
	60.564,56.195 61.287,51.982 58.227,49 62.455,48.385 "/>
<polygon style="fill:none;stroke:#6AC9C8;stroke-linecap:round;stroke-miterlimit:10;" points="79.037,44.552 80.928,48.385 
	85.158,49 82.098,51.982 82.818,56.195 79.037,54.207 75.252,56.195 75.975,51.982 72.914,49 77.145,48.385 "/>
</svg>
